Patient4_TMGait_0pt3_02_right_22_EMG.mot
version=1
nRows=23
nColumns=33
inDegrees=no
endheader
time	1LAddLong	2LGlutMax	3LGlutMed	4LIliopsoas	5LSemiMemb	6LBicFemLong	7LRecFem	8LVastMed	9LVastLat	10LGasMed	11LTibAnt	12lTibPost	13LPeroneusLong	14LSol	15LExtDigLong	16LFlexDigLong	17RAddLong	18RGlutMax	19RGlutMed	20RIliopsoas	21RSemiMemb	22RBicFemLong	23RRecFem	24RVastMed	25RVastLat	26RGasMed	27RTibAnt	28RTibPost	29RPeroneusLong	30RSol	31RExtDigLong	32RFlexDigLong
42.13	-0.023041	0.2124	0.1207	0.001984	-0.016632	0.21255	0.054016	0.002899	-0.016479	0.24521	0.009308	-0.003052	-0.091095	0.040894	0.040894	-0.008087	-0.094299	-0.037384	1.3084	-0.065308	-0.083466	-0.15137	0.18997	0.012054	0.023956	-0.005951	-0.52887	0.002747	0.041656	0.042877	-0.004272	-0.005798
42.131	-0.014954	0.21683	-0.012512	0.010071	-0.007629	0.015717	0.043182	0.001678	-0.014954	0.10452	-0.010529	-0.010376	-0.031128	-0.025024	0.042267	-0.01709	-0.14755	-0.12543	1.1829	-0.1207	-0.083313	-0.12833	0.20218	0.004272	0.02182	-0.007019	-0.66437	0	0.059357	-0.002747	-0.000305	-0.001831
42.132	-0.006409	0.28641	0.11475	0.009918	-0.001831	-0.31204	0.06134	0.001678	0.006866	-0.19028	0.001373	0.002899	0.016937	-0.28244	-0.009155	-0.020447	-0.15717	-0.11231	1.2552	-0.26947	-0.055389	-0.11261	0.20187	-0.018768	0.008392	-0.010376	-0.52948	0.000153	0.051727	-0.024414	-0.004272	-0.001373
42.133	-0.012054	0.29831	0.14114	0.015106	-0.010986	-0.35294	0.12116	-0.003052	0.010681	0.24994	0.00885	0.008545	0.2385	-0.36072	-0.00473	-0.02121	-0.11978	-0.11185	1.4095	-0.2005	-0.049896	-0.096436	0.22232	0.023041	0.005646	0.003357	-0.1828	-0.002441	0.09491	-0.095062	-0.002136	0.007324
42.134	-0.013123	0.31097	0.17609	0.02655	-0.040131	-0.32761	0.12283	0.007629	-0.02533	0.53619	0.001068	0.00351	0.23911	-0.26703	0.01358	0.024109	-0.088501	-0.095367	1.378	0.050049	-0.025024	-0.072784	0.22492	0.067291	0.029449	0.001373	0.19073	-0.002899	0.1294	-0.079193	-0.00412	0.001984
42.135	-0.084381	0.2478	0.12528	-0.006409	-0.039368	-0.2562	0.1152	0.002136	-0.074005	0.49591	-0.017395	0.018768	-0.2417	-0.13596	0.016937	0.023346	-0.032959	-0.10757	1.2482	0.091095	-0.02655	-0.057526	0.24094	0.055084	0.022125	-0.009155	0.052948	-0.005798	0.076294	0.087128	-0.003662	-0.006104
42.136	-0.011139	0.23666	0.095215	-0.000305	-0.026855	-0.1033	0.019226	0.010681	-0.11093	0.27283	-0.005188	0.032501	-0.41916	-0.023499	-0.002289	-0.012054	-0.003357	-0.10834	1.2541	0.025024	-0.007019	-0.052948	0.23224	0.12817	0.028992	-0.015717	0.0914	-0.003967	0.013275	0.17151	-0.003204	-0.018463
42.137	-0.051422	0.21164	0.022888	0.01297	0.038605	-0.022736	-0.00412	0.009155	-0.060272	0.26093	-0.011749	0.041046	0.30121	-0.14282	-0.007172	-0.011902	0.028534	-0.14801	1.3109	-0.036469	0.003967	-0.085297	0.21118	0.10483	0.009003	-0.013428	0.25253	-0.005493	-0.051117	0.067749	-0.002747	-0.018158
42.138	0.025024	0.18295	0.005798	-0.001221	0.046539	0.095978	-0.055695	0.024719	0.012207	0.48675	-0.030518	0.052643	0.69336	-0.22064	-0.005341	-0.062256	0.035553	-0.15243	1.4618	0.004883	-0.012512	-0.086517	0.1973	0.12619	0.010223	-0.010529	0.50415	-0.002747	-0.053864	0.050659	-0.005646	-0.020905
42.139	-0.002594	0.18372	-0.016937	-0.004578	0.014191	0.12329	-0.081482	0.016022	0.096893	0.39536	-0.001831	0.037231	-0.24017	-0.11948	-0.012665	-0.019684	0.014343	-0.11169	1.3103	0.048218	-0.026703	-0.080261	0.18387	0.093231	0.010834	-0.006409	0.3978	-0.002136	0.015869	0.05127	-0.002747	-0.016479
42.14	0.01297	0.18753	-0.060425	0.001526	0.05188	0.072632	-0.096436	0.006561	0.10666	0.49927	0.001068	0.012207	-0.25803	0.019989	0	0.059967	-0.00351	-0.18738	1.3893	0.015259	-0.014954	-0.098572	0.22156	0.070953	0.011139	-0.007172	0.45471	-0.010834	-0.088501	0.050964	-0.005341	-0.019836
42.141	0.009766	0.20584	-0.029755	-0.00061	0.034943	0.074768	-0.054321	0.000916	0.047913	-0.032196	-0.009308	0.009003	-0.22629	0.098724	0.036163	-0.17258	0.005493	-0.16541	1.2531	0.04837	-0.026093	-0.11444	0.23193	0.03952	0.015869	-0.015106	0.681	-0.00351	-0.18051	0.029907	-0.003815	-0.009308
42.142	0.016632	0.22079	-0.015717	0.009918	0.011597	0.063477	0.011292	-0.003204	0.015411	-0.82764	-0.04425	0.011444	-0.13382	0.22705	0.007477	0.075378	0.013275	-0.1358	1.328	0.068054	-0.035095	-0.093079	0.24231	0.04715	-0.001221	-0.002747	0.82108	-0.002747	-0.089111	-0.005035	-0.000305	-0.007629
42.143	0.019073	0.22263	0.018616	-0.003357	0.020447	0.037689	0.026855	-0.007324	0.074158	-0.70129	0.001678	0.054169	0.034027	0.31555	-0.011444	0.17166	0.021667	-0.11398	1.2476	0.12329	-0.040436	-0.11108	0.23682	0.046692	-0.007935	0.005646	0.11353	-0.010071	0.12222	-0.081329	-0.00412	-0.000458
42.144	0.022583	0.27496	0.010071	-0.008698	0.026398	-0.036774	-0.018005	-0.007477	0.072327	-0.56397	-0.027466	0.062561	-0.09964	0.21866	-0.010681	-0.066071	0.063019	-0.10773	1.4543	0.14786	-0.046082	-0.10437	0.22492	0.030365	0.000763	-0.005341	-0.37766	-0.002747	0.1503	-0.073853	0.000916	-0.000305
42.145	0.022736	0.23834	-0.057068	-0.024109	0.026855	-0.046997	0.045929	-0.00412	0.052795	-0.20844	0.021362	0.12024	-0.38711	0.17639	-0.037384	0.055847	0.17868	-0.17029	1.5602	0.13825	-0.067139	-0.11429	0.2565	-0.010681	-0.005341	-0.012207	-0.76538	-0.002747	0.15152	0.024109	-0.002747	-0.00351
42.146	0.018768	0.2243	0.050354	0.005493	0.029144	-0.025635	0.041962	-0.007629	0.050812	0.018158	-0.002747	0.008087	0.09079	0.27679	-0.00061	-0.051117	0.25162	-0.16937	1.5434	0.10468	-0.075836	-0.13947	0.21408	-0.031128	0.001831	-0.014648	-0.61874	-0.005188	0.12451	0.075989	-0.002747	-0.001221
42.147	0.021057	0.28732	0.082092	0.027618	0.018005	-0.020905	0.071259	-0.004883	0.031738	-0.2832	-0.021057	-0.036316	-0.048218	0.24292	0.040894	-0.3772	0.16708	-0.14908	1.6669	0.041504	-0.092163	-0.12634	0.19363	-0.054016	0.005646	-0.014496	-1.2846	-0.007782	0.0383	0.059509	-0.006866	-0.002594
42.148	0.018768	0.26993	0.011139	0.015411	0.016022	0.001678	0.099945	0.008392	0.029602	-0.43121	0.003052	-0.012817	0.13702	-0.10971	-0.038452	0.27237	0.063324	-0.10681	1.5483	-0.057068	-0.096588	-0.13809	0.20676	0.009003	0.018616	-0.006256	-1.1522	-0.002899	0.074768	-0.069733	-0.00412	0.003204
42.149	0.01358	0.2861	0.028534	0.027008	0.016937	0.074158	0.041962	0.016937	0.014496	-0.24094	0.00351	-0.009003	-0.23529	-0.57098	-0.032043	0.14908	0.001526	-0.13825	1.5262	-0.22018	-0.090942	-0.12528	0.20996	0.050201	0.011597	-0.002136	-0.21194	-0.001831	0.099487	-0.016022	-0.003052	-0.001831
42.15	0.000916	0.31479	0.077362	-0.005341	0.00824	0.18753	-0.035553	0.019073	0.040894	-0.14206	0.00412	0.008698	-0.29587	-0.58319	-0.024872	0.11902	-0.052643	-0.14908	1.5547	-0.38284	-0.091553	-0.1355	0.19943	0.080414	-0.001678	0.006256	0.071869	-0.001831	0.16617	0.10376	-0.003815	-0.000458
42.151	0.006561	0.3157	0.081635	0.000305	-0.003815	0.22308	-0.067444	0.019989	0.03418	0.090942	-0.001373	-0.022583	-0.17792	0.15427	-0.028992	-0.13336	-0.051727	-0.099335	1.3889	-0.39169	-0.089722	-0.13046	0.12619	0.070953	-0.020599	0.008698	-0.12756	-0.002136	0.15228	0.038147	-0.00412	-0.004425
42.152	0.005188	0.29739	0.066223	0.018616	-0.008698	0.19486	-0.012054	0.011749	0.002747	0.099335	-0.001373	0.037079	-0.015717	0.29526	-0.04425	0.2092	-0.045471	-0.12177	1.2532	-0.32089	-0.096436	-0.12314	0.14771	0.05722	-0.014343	0.004883	-0.068054	-0.000916	0.066833	-0.091095	-0.005493	-0.002441
